<?xml version="1.0" encoding="utf-8"?>
<!DOCTYPE svg PUBLIC "-//W3C//DTD SVG 20010904//EN" "http://www.w3.org/TR/2001/REC-SVG-20010904/DTD/svg10.dtd">
<svg version="1.0" xmlns="http://www.w3.org/2000/svg" width="42pt" height="42pt" viewBox="0 0 42 42" style="" preserveAspectRatio="xMidYMid meet">
<g fill="#DBDBDBFF" stroke="#DBDBDBFF">
<path d="M 23.259 8.017 C 24.053 9.951 25.023 13.669 25.415 16.279 C 26.008 20.239 25.785 21.458 24.063 23.647 C 20.826 27.762 21.651 28.467 25.104 24.535 C 26.811 22.591 27.936 20.944 27.604 20.875 C 27.272 20.806 27.563 20.694 28.250 20.625 C 29.011 20.549 29.581 18.741 29.708 16.000 C 29.899 11.849 29.703 11.849 28.354 16.000 C 28.079 16.847 27.081 15.183 26.063 12.180 C 25.071 9.254 23.710 6.329 23.037 5.680 C 22.210 4.882 22.282 5.638 23.259 8.017 "/></g>
<g fill="#DBDBDBFF" stroke="#DBDBDBFF">
<path d="M 15.818 10.654 C 14.893 12.769 13.932 15.175 13.682 16.000 C 13.355 17.082 12.924 16.803 12.138 15.000 C 11.136 12.705 11.066 12.827 11.274 16.500 C 11.405 18.829 12.022 20.552 12.750 20.625 C 13.438 20.694 13.691 20.806 13.313 20.875 C 12.935 20.944 13.915 22.345 15.490 23.990 C 17.065 25.634 18.576 26.757 18.848 26.486 C 19.119 26.214 18.299 24.883 17.026 23.528 C 14.817 21.176 14.767 20.800 15.941 15.282 C 17.713 6.949 17.697 6.358 15.818 10.654 "/></g>
<g fill="#242424F9" stroke="#242424F9">
<path d="M 16.472 27.122 C 17.347 28.565 18.249 31.218 18.477 33.018 C 19.075 37.742 20.409 38.550 22.455 35.428 C 23.419 33.957 23.663 33.091 22.997 33.502 C 21.342 34.525 22.708 30.102 24.773 27.750 C 25.704 26.690 25.865 26.000 25.181 26.000 C 24.560 26.000 23.298 27.457 22.377 29.238 C 20.840 32.210 20.612 32.324 19.601 30.619 C 18.996 29.598 17.686 27.804 16.691 26.631 C 14.910 24.534 14.907 24.542 16.472 27.122 "/></g>
<g fill="#DBDBDBFF" stroke="#DBDBDBFF">
<path d="M 34.015 23.644 C 34.001 25.675 32.495 27.499 25.056 34.500 C 23.302 36.150 22.685 36.909 23.684 36.187 C 24.683 35.465 26.860 34.193 28.522 33.361 C 32.242 31.497 36.243 24.997 34.939 22.935 C 34.230 21.815 34.027 21.970 34.015 23.644 "/></g>
<g fill="#DBDBDBFF" stroke="#DBDBDBFF">
<path d="M 5.895 22.984 C 5.146 25.001 8.685 30.769 11.889 32.753 C 13.325 33.642 15.513 35.265 16.750 36.359 C 17.988 37.453 19.000 37.854 19.000 37.250 C 19.000 36.646 17.602 35.105 15.894 33.826 C 10.602 29.863 7.144 26.023 6.788 23.714 C 6.546 22.148 6.285 21.935 5.895 22.984 "/></g>
<g fill="#626262FE" stroke="#626262FE">
<path d="M 24.446 17.829 C 24.838 19.065 24.432 21.043 23.444 22.704 L 21.783 25.500 23.891 23.139 C 26.188 20.568 26.644 17.516 24.893 16.434 C 24.151 15.976 24.004 16.437 24.446 17.829 "/></g>
<g fill="#626262FE" stroke="#626262FE">
<path d="M 15.622 17.799 C 15.070 19.411 15.382 20.870 16.667 22.680 C 18.431 25.165 18.466 25.173 17.598 22.881 C 17.102 21.571 16.632 19.375 16.553 18.000 L 16.410 15.500 15.622 17.799 "/></g>
<g fill="#242424F9" stroke="#242424F9">
<path d="M 19.306 25.870 L 20.720 29.241 21.847 26.009 C 22.768 23.366 22.735 22.975 21.663 23.865 C 20.710 24.655 20.016 24.617 19.122 23.726 C 18.273 22.880 18.330 23.545 19.306 25.870 "/></g>
<g fill="#626262FE" stroke="#626262FE">
<path d="M 18.176 28.090 C 17.448 29.255 17.288 29.940 17.821 29.610 C 18.354 29.281 19.059 29.712 19.388 30.569 C 19.721 31.438 20.498 31.810 21.144 31.411 C 21.991 30.888 21.926 30.399 20.901 29.597 C 20.131 28.994 19.500 27.931 19.500 27.235 C 19.500 26.539 18.904 26.924 18.176 28.090 "/></g>
<g fill="#DBDBDBFF" stroke="#DBDBDBFF">
<path d="M 17.015 20.715 C 16.988 22.897 20.528 24.066 22.593 22.556 C 24.305 21.304 24.224 21.235 21.625 21.731 C 19.797 22.081 18.475 21.780 17.909 20.887 C 17.311 19.943 17.026 19.888 17.015 20.715 "/></g>
<g fill="#DBDBDBFF" stroke="#DBDBDBFF">
<path d="M 18.412 16.225 C 16.777 18.141 16.759 18.265 18.291 17.076 C 19.516 16.126 20.702 15.973 22.046 16.593 C 23.949 17.472 23.952 17.446 22.167 15.742 C 20.405 14.061 20.241 14.082 18.412 16.225 "/></g>
<g fill="#A8A8A8FF" stroke="#A8A8A8FF">
<path d="M 11.869 11.000 C 11.535 11.825 11.736 13.625 12.315 15.000 C 13.240 17.198 13.313 17.017 12.921 13.500 C 12.667 11.230 12.212 10.149 11.869 11.000 "/></g>
<g fill="#242424F9" stroke="#242424F9">
<path d="M 26.509 11.250 C 27.286 13.038 27.939 13.749 27.961 12.832 C 28.015 10.529 26.958 8.000 25.941 8.000 C 25.477 8.000 25.732 9.463 26.509 11.250 "/></g>
<g fill="#A8A8A8FF" stroke="#A8A8A8FF">
<path d="M 23.457 18.931 C 23.774 19.443 23.493 20.195 22.833 20.603 C 22.053 21.085 22.348 21.397 23.677 21.495 C 25.193 21.606 25.597 21.175 25.243 19.823 C 24.981 18.820 24.343 18.000 23.824 18.000 C 23.306 18.000 23.141 18.419 23.457 18.931 "/></g>
<g fill="#A8A8A8FF" stroke="#A8A8A8FF">
<path d="M 19.258 39.108 C 20.225 39.658 21.575 39.759 22.258 39.332 C 23.038 38.844 22.384 38.472 20.500 38.331 C 18.048 38.148 17.821 38.290 19.258 39.108 "/></g>
<g fill="#242424F9" stroke="#242424F9">
<path d="M 21.586 18.351 C 22.024 19.501 21.763 20.537 20.896 21.086 C 19.852 21.746 19.823 21.973 20.781 21.985 C 22.609 22.007 23.487 19.085 22.074 17.683 C 21.153 16.769 21.042 16.922 21.586 18.351 "/></g>
<g fill="#A8A8A8FF" stroke="#A8A8A8FF">
<path d="M 24.412 28.750 C 24.800 29.438 24.641 30.000 24.059 30.000 C 23.477 30.000 23.000 30.505 23.000 31.122 C 23.000 31.884 23.496 31.834 24.542 30.965 C 25.725 29.983 25.807 29.430 24.896 28.592 C 24.020 27.788 23.893 27.830 24.412 28.750 "/></g>
<g fill="#A8A8A8FF" stroke="#A8A8A8FF">
<path d="M 15.658 18.551 C 15.964 19.348 16.616 20.000 17.107 20.000 C 18.545 20.000 18.133 18.265 16.551 17.658 C 15.582 17.286 15.286 17.582 15.658 18.551 "/></g>
<g fill="#626262FE" stroke="#626262FE">
<path d="M 13.349 26.244 C 12.976 26.848 13.161 27.019 13.776 26.638 C 14.373 26.269 15.224 26.537 15.666 27.234 C 16.280 28.201 16.473 28.151 16.485 27.022 C 16.503 25.269 14.291 24.720 13.349 26.244 "/></g>
<g fill="#626262FE" stroke="#626262FE">
<path d="M 28.215 12.750 C 27.505 13.993 27.365 15.000 27.902 15.000 C 28.437 15.000 29.015 13.988 29.187 12.750 L 29.500 10.500 28.215 12.750 "/></g>
<g fill="#DBDBDBFF" stroke="#DBDBDBFF">
<path d="M 15.000 27.882 C 15.000 28.432 15.450 29.160 16.000 29.500 C 16.550 29.840 17.000 29.668 17.000 29.118 C 17.000 28.568 16.550 27.840 16.000 27.500 C 15.450 27.160 15.000 27.332 15.000 27.882 "/></g>
<g fill="#A8A8A8FF" stroke="#A8A8A8FF">
<path d="M 26.729 25.604 C 25.608 26.725 25.865 28.202 27.053 27.467 C 27.632 27.110 27.960 26.380 27.782 25.846 C 27.604 25.312 27.130 25.203 26.729 25.604 "/></g>
<g fill="#626262FE" stroke="#626262FE">
<path d="M 17.000 33.000 C 17.000 33.550 17.450 34.000 18.000 34.000 C 18.550 34.000 19.000 33.550 19.000 33.000 C 19.000 32.450 18.550 32.000 18.000 32.000 C 17.450 32.000 17.000 32.450 17.000 33.000 "/></g>
<g fill="#626262FE" stroke="#626262FE">
<path d="M 20.000 16.912 C 20.000 17.413 20.685 17.723 21.522 17.600 C 22.358 17.477 22.733 17.067 22.355 16.688 C 21.374 15.707 20.000 15.837 20.000 16.912 "/></g>
<g fill="#242424F9" stroke="#242424F9">
<path d="M 18.750 17.628 C 18.338 18.016 18.042 19.046 18.093 19.917 C 18.146 20.802 18.476 20.492 18.843 19.212 C 19.205 17.953 19.163 17.241 18.750 17.628 "/></g>
<g fill="#DBDBDBFF" stroke="#DBDBDBFF">
<path d="M 24.695 28.352 C 24.275 29.448 24.413 29.863 25.064 29.460 C 25.637 29.106 25.939 28.318 25.736 27.709 C 25.533 27.100 25.065 27.389 24.695 28.352 "/></g>
<g fill="#DBDBDBFF" stroke="#DBDBDBFF">
<path d="M 19.564 18.896 C 19.249 19.407 19.745 19.714 20.668 19.578 C 21.719 19.424 21.934 19.077 21.242 18.650 C 20.635 18.274 19.880 18.385 19.564 18.896 "/></g>
<g fill="#A8A8A8FF" stroke="#A8A8A8FF">
<path d="M 16.800 31.200 C 17.733 32.133 18.000 32.133 18.000 31.200 C 18.000 30.540 17.460 30.000 16.800 30.000 C 15.867 30.000 15.867 30.267 16.800 31.200 "/></g>
<g fill="#A8A8A8FF" stroke="#A8A8A8FF">
<path d="M 30.378 29.378 L 29.500 30.256 30.378 29.378 L 31.256 28.500 30.378 29.378 "/></g>
<g fill="#A8A8A8FF" stroke="#A8A8A8FF">
<path d="M 20.695 29.352 C 20.275 30.448 20.413 30.863 21.064 30.460 C 21.637 30.106 21.939 29.318 21.736 28.709 C 21.533 28.100 21.065 28.389 20.695 29.352 "/></g>
<g fill="#A8A8A8FF" stroke="#A8A8A8FF">
<path d="M 10.500 29.500 L 12.000 31.000 10.500 29.500 L 9.000 28.000 10.500 29.500 "/></g>
<g fill="#A8A8A8FF" stroke="#A8A8A8FF">
<path d="M 18.500 27.500 L 20.000 29.000 18.500 27.500 L 17.000 26.000 18.500 27.500 "/></g>
<g fill="#A8A8A8FF" stroke="#A8A8A8FF">
<path d="M 13.843 26.613 C 14.446 27.651 14.953 27.964 14.970 27.309 C 14.986 26.654 14.493 25.805 13.874 25.422 C 13.045 24.910 13.037 25.224 13.843 26.613 "/></g>
<g fill="#A8A8A8FF" stroke="#A8A8A8FF">
<path d="M 27.000 16.200 C 27.000 17.133 27.267 17.133 28.200 16.200 C 29.133 15.267 29.133 15.000 28.200 15.000 C 27.540 15.000 27.000 15.540 27.000 16.200 "/></g>
<g fill="#A8A8A8FF" stroke="#A8A8A8FF">
<path d="M 17.800 7.200 C 18.733 8.133 19.000 8.133 19.000 7.200 C 19.000 6.540 18.460 6.000 17.800 6.000 C 16.867 6.000 16.867 6.267 17.800 7.200 "/></g>
<g fill="#626262FE" stroke="#626262FE">
<path d="M 19.564 38.104 C 19.880 38.615 20.635 38.726 21.242 38.350 C 21.934 37.923 21.719 37.576 20.668 37.422 C 19.745 37.286 19.249 37.593 19.564 38.104 "/></g>
<g fill="#626262FE" stroke="#626262FE">
<path d="M 22.000 33.200 C 22.000 34.133 22.267 34.133 23.200 33.200 C 24.133 32.267 24.133 32.000 23.200 32.000 C 22.540 32.000 22.000 32.540 22.000 33.200 "/></g>
<g fill="#626262FE" stroke="#626262FE">
<path d="M 22.500 28.500 L 24.000 30.000 22.500 28.500 L 21.000 27.000 22.500 28.500 "/></g>
<g fill="#626262FE" stroke="#626262FE">
<path d="M 27.000 8.800 C 27.000 9.460 27.540 10.000 28.200 10.000 C 29.133 10.000 29.133 9.733 28.200 8.800 C 27.267 7.867 27.000 7.867 27.000 8.800 "/></g>
<g fill="#626262FE" stroke="#626262FE">
<path d="M 13.750 7.666 C 13.338 8.033 13.030 8.821 13.066 9.417 C 13.102 10.013 13.439 9.712 13.816 8.750 C 14.192 7.787 14.163 7.300 13.750 7.666 "/></g>
</svg>
